<mxfile host="app.diagrams.net" modified="2023-09-06T08:59:21.229Z" agent="Mozilla/5.0 (Windows NT 10.0; Win64; x64) AppleWebKit/537.36 (KHTML, like Gecko) Chrome/116.0.0.0 Safari/537.36" etag="b45v99qXQhKeympaM1Sc" version="21.7.2" type="github">
  <diagram name="Page-1" id="0783ab3e-0a74-02c8-0abd-f7b4e66b4bec">
    <mxGraphModel dx="890" dy="437" grid="1" gridSize="10" guides="1" tooltips="1" connect="1" arrows="1" fold="1" page="1" pageScale="1" pageWidth="850" pageHeight="1100" background="none" math="0" shadow="0">
      <root>
        <mxCell id="0" />
        <mxCell id="1" parent="0" />
        <mxCell id="t_uWAH-yh04CCw6nDBP0-1" value="&lt;font size=&quot;1&quot; style=&quot;&quot;&gt;&lt;b style=&quot;font-size: 17px;&quot;&gt;Clerk&lt;/b&gt;&lt;/font&gt;" style="shape=umlActor;verticalLabelPosition=bottom;verticalAlign=top;html=1;" vertex="1" parent="1">
          <mxGeometry x="135" y="120" width="50" height="110" as="geometry" />
        </mxCell>
        <mxCell id="t_uWAH-yh04CCw6nDBP0-3" value="&lt;span style=&quot;font-size: 17px;&quot;&gt;&lt;b&gt;Manager&lt;/b&gt;&lt;/span&gt;" style="shape=umlActor;verticalLabelPosition=bottom;verticalAlign=top;html=1;" vertex="1" parent="1">
          <mxGeometry x="130" y="360" width="60" height="110" as="geometry" />
        </mxCell>
        <mxCell id="t_uWAH-yh04CCw6nDBP0-12" style="rounded=0;orthogonalLoop=1;jettySize=auto;html=1;exitX=0;exitY=0.5;exitDx=0;exitDy=0;entryX=0.5;entryY=0.5;entryDx=0;entryDy=0;entryPerimeter=0;endArrow=none;endFill=0;" edge="1" parent="1" source="t_uWAH-yh04CCw6nDBP0-4" target="t_uWAH-yh04CCw6nDBP0-1">
          <mxGeometry relative="1" as="geometry" />
        </mxCell>
        <mxCell id="t_uWAH-yh04CCw6nDBP0-21" style="rounded=0;orthogonalLoop=1;jettySize=auto;html=1;exitX=0.5;exitY=1;exitDx=0;exitDy=0;entryX=0.5;entryY=0;entryDx=0;entryDy=0;dashed=1;" edge="1" parent="1" source="t_uWAH-yh04CCw6nDBP0-4" target="t_uWAH-yh04CCw6nDBP0-5">
          <mxGeometry relative="1" as="geometry" />
        </mxCell>
        <mxCell id="t_uWAH-yh04CCw6nDBP0-4" value="&lt;font size=&quot;1&quot; style=&quot;&quot;&gt;&lt;b style=&quot;font-size: 17px;&quot;&gt;Balance status report&lt;/b&gt;&lt;/font&gt;" style="ellipse;whiteSpace=wrap;html=1;" vertex="1" parent="1">
          <mxGeometry x="330" y="150" width="150" height="80" as="geometry" />
        </mxCell>
        <mxCell id="t_uWAH-yh04CCw6nDBP0-13" style="rounded=0;orthogonalLoop=1;jettySize=auto;html=1;exitX=0;exitY=0.5;exitDx=0;exitDy=0;endArrow=none;endFill=0;" edge="1" parent="1" source="t_uWAH-yh04CCw6nDBP0-5">
          <mxGeometry relative="1" as="geometry">
            <mxPoint x="160" y="170" as="targetPoint" />
          </mxGeometry>
        </mxCell>
        <mxCell id="t_uWAH-yh04CCw6nDBP0-20" style="rounded=0;orthogonalLoop=1;jettySize=auto;html=1;exitX=0.5;exitY=1;exitDx=0;exitDy=0;entryX=0;entryY=0;entryDx=0;entryDy=0;dashed=1;" edge="1" parent="1" source="t_uWAH-yh04CCw6nDBP0-5" target="t_uWAH-yh04CCw6nDBP0-6">
          <mxGeometry relative="1" as="geometry" />
        </mxCell>
        <mxCell id="t_uWAH-yh04CCw6nDBP0-5" value="&lt;b&gt;&lt;font style=&quot;font-size: 17px;&quot;&gt;Withdraw Cash&lt;/font&gt;&lt;/b&gt;" style="ellipse;whiteSpace=wrap;html=1;" vertex="1" parent="1">
          <mxGeometry x="250" y="290" width="140" height="70" as="geometry" />
        </mxCell>
        <mxCell id="t_uWAH-yh04CCw6nDBP0-14" style="rounded=0;orthogonalLoop=1;jettySize=auto;html=1;exitX=0;exitY=0.5;exitDx=0;exitDy=0;entryX=0.5;entryY=0.5;entryDx=0;entryDy=0;entryPerimeter=0;endArrow=none;endFill=0;" edge="1" parent="1" source="t_uWAH-yh04CCw6nDBP0-6" target="t_uWAH-yh04CCw6nDBP0-3">
          <mxGeometry relative="1" as="geometry" />
        </mxCell>
        <mxCell id="t_uWAH-yh04CCw6nDBP0-6" value="&lt;font style=&quot;font-size: 17px;&quot;&gt;&lt;b&gt;Validation&lt;/b&gt;&lt;/font&gt;" style="ellipse;whiteSpace=wrap;html=1;" vertex="1" parent="1">
          <mxGeometry x="330" y="400" width="140" height="70" as="geometry" />
        </mxCell>
        <mxCell id="t_uWAH-yh04CCw6nDBP0-11" style="rounded=0;orthogonalLoop=1;jettySize=auto;html=1;exitX=0.5;exitY=0.5;exitDx=0;exitDy=0;exitPerimeter=0;entryX=1;entryY=0.5;entryDx=0;entryDy=0;endArrow=none;endFill=0;" edge="1" parent="1" source="t_uWAH-yh04CCw6nDBP0-7" target="t_uWAH-yh04CCw6nDBP0-4">
          <mxGeometry relative="1" as="geometry" />
        </mxCell>
        <mxCell id="t_uWAH-yh04CCw6nDBP0-7" value="&lt;font style=&quot;font-size: 17px;&quot;&gt;&lt;b&gt;Customer&lt;/b&gt;&lt;/font&gt;" style="shape=umlActor;verticalLabelPosition=bottom;verticalAlign=top;html=1;" vertex="1" parent="1">
          <mxGeometry x="620" y="130" width="50" height="110" as="geometry" />
        </mxCell>
        <mxCell id="t_uWAH-yh04CCw6nDBP0-10" style="orthogonalLoop=1;jettySize=auto;html=1;exitX=0.5;exitY=0.5;exitDx=0;exitDy=0;exitPerimeter=0;entryX=1;entryY=1;entryDx=0;entryDy=0;rounded=0;endArrow=none;endFill=0;" edge="1" parent="1" source="t_uWAH-yh04CCw6nDBP0-8" target="t_uWAH-yh04CCw6nDBP0-4">
          <mxGeometry relative="1" as="geometry" />
        </mxCell>
        <mxCell id="t_uWAH-yh04CCw6nDBP0-22" style="rounded=0;orthogonalLoop=1;jettySize=auto;html=1;exitX=0.5;exitY=0.5;exitDx=0;exitDy=0;exitPerimeter=0;entryX=1;entryY=0.5;entryDx=0;entryDy=0;endArrow=none;endFill=0;" edge="1" parent="1" source="t_uWAH-yh04CCw6nDBP0-8" target="t_uWAH-yh04CCw6nDBP0-5">
          <mxGeometry relative="1" as="geometry" />
        </mxCell>
        <mxCell id="t_uWAH-yh04CCw6nDBP0-8" value="&lt;font style=&quot;font-size: 17px;&quot;&gt;&lt;b&gt;ATM DB&lt;/b&gt;&lt;/font&gt;" style="shape=umlActor;verticalLabelPosition=bottom;verticalAlign=top;html=1;strokeWidth=2;" vertex="1" parent="1">
          <mxGeometry x="610" y="380" width="50" height="110" as="geometry" />
        </mxCell>
        <mxCell id="t_uWAH-yh04CCw6nDBP0-19" value="ATM" style="shape=umlFrame;whiteSpace=wrap;html=1;pointerEvents=0;" vertex="1" parent="1">
          <mxGeometry x="210" y="120" width="370" height="380" as="geometry" />
        </mxCell>
        <mxCell id="t_uWAH-yh04CCw6nDBP0-23" value="&lt;font style=&quot;font-size: 16px;&quot;&gt;&amp;lt;&amp;lt;extends&amp;gt;&amp;gt;&lt;/font&gt;" style="text;html=1;align=center;verticalAlign=middle;resizable=0;points=[];autosize=1;strokeColor=none;fillColor=none;" vertex="1" parent="1">
          <mxGeometry x="250" y="240" width="120" height="30" as="geometry" />
        </mxCell>
        <mxCell id="t_uWAH-yh04CCw6nDBP0-24" value="&lt;font style=&quot;font-size: 16px;&quot;&gt;&amp;lt;&amp;lt;includes&amp;gt;&amp;gt;&lt;/font&gt;" style="text;html=1;align=center;verticalAlign=middle;resizable=0;points=[];autosize=1;strokeColor=none;fillColor=none;" vertex="1" parent="1">
          <mxGeometry x="320" y="370" width="120" height="30" as="geometry" />
        </mxCell>
      </root>
    </mxGraphModel>
  </diagram>
</mxfile>
